<?xml version="1.0" encoding="utf-8"?>
<svg viewBox="25 191.336 450 117.328" xmlns="http://www.w3.org/2000/svg">
  <g transform="matrix(1, 0, 0, 1, 0, 1.1102230246251565e-16)">
    <path style="fill:#FFD800;" d="M92.73,191.336L25,308.565h135.363L92.73,191.336z M77.244,294.548v-44.695l1.372-6.175 l38.717,22.348l4.705,4.312l-38.717,22.349L77.244,294.548z M79.204,241.032l1.862-8.43l27.641,25.484L79.204,241.032z M74.695,295.333l-8.234,2.549l8.234-36.66V295.333z M124.096,272.103l6.371,5.782l-35.973,11.272L124.096,272.103z M82.341,229.366l2.646-7.056l31.366,38.325L82.341,229.366z M63.129,298.568l-7.449,1.274l17.545-46.462L63.129,298.568z M132.722,280.533l4.705,5.783l-48.911,8.036L132.722,280.533z M86.065,217.604l2.745-5.684l33.522,49.989L86.065,217.604z M51.073,301.214l-6.273,0.393l26.563-54.008L51.073,301.214z M140.955,289.647l3.529,5.195l-60.085,4.02L140.955,289.647z M126.449,260.046l-36.267-54.105l2.548-4.411L126.449,260.046z M67.638,244.952l-28.719,58.517h-5.097L67.638,244.952z M83.909,303.469l65.084-4.411l2.548,4.411H83.909z"/>
    <g>
      <path style="fill:#3E3A39;" d="M192.709,214.566c0,5.587-3.235,9.116-8.43,9.116c-5.195,0-8.43-3.529-8.43-9.018 s3.431-9.018,8.626-9.018C189.376,205.745,192.709,209.273,192.709,214.566 M178.496,214.566c0,4.215,2.254,7.057,5.783,7.057 s5.685-2.843,5.685-6.959c0-4.117-2.254-6.959-5.685-6.959C180.751,207.705,178.496,210.548,178.496,214.566"/>
      <path style="fill:#3E3A39;" d="M196.629,214.468c0-1.372,0-2.745-0.098-3.725h2.254c0,0.49,0.098,1.372,0.098,2.058 c0.882-1.568,2.548-2.45,4.411-2.352c3.235,0,5.489,2.646,5.489,6.469c0,4.019-2.254,6.861-5.489,6.861 c-1.764,0-3.431-0.882-4.313-2.45c0,0.49,0.098,2.45,0.098,3.137v4.215h-2.352L196.629,214.468z M198.982,217.115 c0,2.548,1.666,4.705,3.725,4.705c2.058,0,3.529-2.058,3.529-4.705c0-2.843-1.372-4.705-3.529-4.705 C200.55,212.41,198.982,214.468,198.982,217.115"/>
      <path style="fill:#3E3A39;" d="M214.077,217.605c0,2.254,1.764,4.117,4.019,4.117h0.392c1.274,0,2.548-0.294,3.725-0.98 l0.098,2.156c-1.274,0.49-2.548,0.784-3.921,0.784c-4.215,0-6.665-2.548-6.665-6.763c0-4.019,2.45-6.567,6.077-6.567 c3.333,0,5.489,2.058,5.489,6.273v0.98H214.077z M220.938,215.841c0-2.45-1.372-3.627-3.235-3.627 c-1.862,0-3.333,1.372-3.529,3.627H220.938z"/>
      <path style="fill:#3E3A39;" d="M229.074,212.704c0.882-1.47,2.548-2.352,4.215-2.352c3.627,0,4.803,2.352,4.803,5.783v7.253 h-2.352v-6.273c0-2.45-0.196-4.803-2.941-4.803c-1.274,0-2.45,0.686-3.039,1.862c-0.49,0.98-0.686,2.058-0.588,3.137v6.077h-2.352 v-9.018c0-1.372,0-2.744-0.098-3.725h2.352C228.976,211.233,229.074,212.018,229.074,212.704"/>
      <path style="fill:#3E3A39;" d="M256.225,206.529c-0.392-0.098-0.785-0.196-1.176-0.196c-1.569,0-2.156,0.882-2.156,3.137v1.274 h3.431v1.862h-3.431v10.782h-2.45v-10.782h-2.941v-1.862h3.038v-1.176c0-3.039,1.079-5.097,4.117-5.097 c0.589,0,1.177,0.098,1.764,0.196L256.225,206.529z"/>
      <path style="fill:#3E3A39;" d="M271.123,217.115c0,3.627-2.941,6.567-6.566,6.567c-3.628,0-6.568-2.941-6.568-6.567 c-0.196-3.529,2.45-6.567,5.979-6.763h0.589C268.378,210.351,271.123,213.194,271.123,217.115 M260.537,217.115 c0,2.745,1.666,4.607,4.117,4.607s4.019-1.862,4.019-4.607c0-2.745-1.665-4.803-4.116-4.803 C262.106,212.312,260.537,214.272,260.537,217.115"/>
      <path style="fill:#3E3A39;" d="M277.004,212.802c0.589-1.47,2.059-2.352,3.53-2.45c0.391,0,0.783,0,1.176,0.196v2.254 c-0.393-0.196-0.883-0.196-1.275-0.196c-2.155,0-3.529,1.862-3.529,5.097v5.783h-2.352v-8.92c0-1.372,0-2.745-0.098-3.725h2.353 C276.906,211.43,277.004,212.116,277.004,212.802"/>
      <rect x="291.511" y="206.039" style="fill:#3E3A39;" width="2.548" height="17.349"/>
      <path style="fill:#3E3A39;" d="M301.117,212.704c0.881-1.47,2.548-2.352,4.215-2.352c3.627,0,4.803,2.352,4.803,5.783v7.253 h-2.352v-6.273c0-2.45-0.196-4.803-2.941-4.803c-1.274,0-2.45,0.686-3.039,1.862c-0.49,0.98-0.686,2.058-0.588,3.137v6.077h-2.352 v-9.018c0-1.372,0-2.744-0.098-3.725h2.352C301.018,211.233,301.117,212.018,301.117,212.704"/>
      <path style="fill:#3E3A39;" d="M316.8,212.704c0.881-1.47,2.548-2.352,4.215-2.352c3.627,0,4.705,2.352,4.705,5.783v7.253h-2.352 v-6.273c0-2.45-0.196-4.803-2.941-4.803c-1.275,0-2.45,0.686-3.039,1.862c-0.49,0.98-0.687,2.058-0.588,3.137v6.077h-2.352v-9.018 c0-1.372,0-2.744-0.098-3.725h2.351C316.701,211.233,316.701,212.018,316.8,212.704"/>
      <path style="fill:#3E3A39;" d="M342.284,217.115c0.196,3.431-2.548,6.469-5.979,6.567h-0.588 c-3.529,0.098-6.469-2.646-6.567-6.175v-0.392c-0.196-3.529,2.45-6.567,5.979-6.763h0.588 C339.638,210.351,342.284,213.194,342.284,217.115 M331.796,217.115c0,2.745,1.666,4.607,4.019,4.607 c2.352,0,4.019-1.862,4.019-4.607c0-2.745-1.666-4.803-4.117-4.803C333.267,212.312,331.796,214.272,331.796,217.115"/>
      <path style="fill:#3E3A39;" d="M348.949,218.487c0.294,0.784,0.686,2.156,0.882,3.039c0.196-0.882,0.686-2.352,0.98-3.039 l2.548-7.743h2.45l-4.705,12.742h-2.843l-4.607-12.742h2.548L348.949,218.487z"/>
      <path style="fill:#3E3A39;" d="M358.654,211.43c1.274-0.686,2.744-1.078,4.215-1.078c3.725,0,5.097,2.156,5.097,5.097v4.117 c0,1.372,0,2.941,0.098,3.823h-2.157v-1.078v-1.176c-0.881,1.568-2.45,2.45-4.214,2.352c-2.744,0-4.411-1.47-4.411-3.823 c0-2.646,2.45-4.117,6.664-4.117c0.49,0,1.177,0,1.764,0.098v-0.098c0-2.156-1.077-3.235-3.235-3.235 c-1.371,0-2.647,0.49-3.724,1.176L358.654,211.43z M364.535,217.311c-3.137,0-4.706,0.784-4.706,2.45c0,1.274,0.98,1.96,2.45,1.96 c1.373,0,2.549-0.686,3.137-1.862c0.294-0.784,0.49-1.666,0.393-2.548H364.535z"/>
      <path style="fill:#3E3A39;" d="M375.807,210.743h3.431v1.862h-3.431v5.587c0,2.058,0.294,3.431,2.155,3.431 c0.49,0,0.98-0.098,1.373-0.294l0.097,1.862c-0.685,0.196-1.371,0.392-2.057,0.392c-3.235,0-3.921-1.96-3.921-4.705v-6.273h-2.941 v-1.862h2.941v-3.039l2.352-0.784V210.743z"/>
      <path style="fill:#3E3A39;" d="M384.922,208.391h-2.647v-2.646h2.647V208.391z M384.824,223.388h-2.45v-12.742h2.45V223.388z"/>
      <path style="fill:#3E3A39;" d="M401.487,217.115c0.196,3.431-2.45,6.371-5.979,6.567h-0.587c-3.53,0.098-6.47-2.646-6.568-6.175 v-0.49c-0.196-3.529,2.45-6.567,5.979-6.763h0.589C398.742,210.351,401.487,213.194,401.487,217.115 M390.901,217.115 c0,2.745,1.666,4.607,4.02,4.607c2.351,0,4.018-1.862,4.018-4.607c0-2.745-1.666-4.803-4.117-4.803 C392.371,212.312,390.901,214.272,390.901,217.115"/>
      <path style="fill:#3E3A39;" d="M407.368,212.704c0.882-1.47,2.549-2.352,4.216-2.352c3.626,0,4.802,2.352,4.802,5.783v7.253 h-2.351v-6.273c0-2.45-0.295-4.803-2.941-4.803c-1.275,0-2.45,0.686-3.137,1.862c-0.49,0.98-0.687,2.058-0.589,3.137v6.077h-2.351 v-9.018c0-1.372,0-2.744-0.099-3.725h2.352C407.27,211.233,407.27,212.018,407.368,212.704"/>
      <polygon style="fill:#3E3A39;" points="188.886,241.325 188.886,272.397 189.18,272.397 213.881,241.325 228.682,241.325 &#10;&#9;&#9;&#9;203.589,272.985 236.033,308.566 219.37,308.566 188.886,275.534 188.886,308.566 175.85,308.566 175.85,241.325 &#9;&#9;"/>
      <polygon style="fill:#3E3A39;" points="253.872,241.325 293.863,288.276 293.863,241.325 306.606,241.325 306.606,308.566 &#10;&#9;&#9;&#9;295.432,308.566 255.244,260.831 255.244,308.566 242.502,308.566 242.502,241.325 &#9;&#9;"/>
      <rect x="321.21" y="241.325" style="fill:#3E3A39;" width="13.036" height="67.24"/>
      <polygon style="fill:#3E3A39;" points="360.515,241.325 382.668,267.79 404.722,241.325 416.288,241.325 416.288,308.566 &#10;&#9;&#9;&#9;403.349,308.566 403.349,261.321 402.957,261.321 383.55,285.041 381.688,285.041 362.182,261.321 361.79,261.321 361.79,308.566 &#10;&#9;&#9;&#9;348.753,308.566 348.753,241.325 &#9;&#9;"/>
      <polygon style="fill:#3E3A39;" points="474.315,241.325 474.315,251.519 443.83,251.519 443.83,269.162 473.04,269.162 &#10;&#9;&#9;&#9;473.04,279.356 443.83,279.356 443.83,298.47 475,298.47 475,308.664 430.795,308.664 430.795,241.325 &#9;&#9;"/>
    </g>
  </g>
</svg>