<?xml version="1.0" encoding="utf-8"?>
<svg viewBox="25 191.336 135.363 117.229" xmlns="http://www.w3.org/2000/svg">
  <path style="fill:#FFD800;" d="M92.73,191.336L25,308.565h135.363L92.73,191.336z M77.244,294.548v-44.695l1.372-6.175 l38.717,22.348l4.705,4.312l-38.717,22.349L77.244,294.548z M79.204,241.032l1.862-8.43l27.641,25.484L79.204,241.032z M74.695,295.333l-8.234,2.549l8.234-36.66V295.333z M124.096,272.103l6.371,5.782l-35.973,11.272L124.096,272.103z M82.341,229.366l2.646-7.056l31.366,38.325L82.341,229.366z M63.129,298.568l-7.449,1.274l17.545-46.462L63.129,298.568z M132.722,280.533l4.705,5.783l-48.911,8.036L132.722,280.533z M86.065,217.604l2.745-5.684l33.522,49.989L86.065,217.604z M51.073,301.214l-6.273,0.393l26.563-54.008L51.073,301.214z M140.955,289.647l3.529,5.195l-60.085,4.02L140.955,289.647z M126.449,260.046l-36.267-54.105l2.548-4.411L126.449,260.046z M67.638,244.952l-28.719,58.517h-5.097L67.638,244.952z M83.909,303.469l65.084-4.411l2.548,4.411H83.909z" transform="matrix(1, 0, 0, 1, 0, 1.1102230246251565e-16)"/>
</svg>