<?xml version="1.0" encoding="utf-8"?>
<svg viewBox="0.0042 0 637.9958 169.48" xmlns="http://www.w3.org/2000/svg">
  <defs>
    <style>.cls-1{fill:#34a853;}.cls-2{fill:#fbbc04;}.cls-3{fill:#ea4335;}.cls-4{fill:#4285f4;}.cls-5{fill:#5f6368;}</style>
  </defs>
  <path class="cls-1" d="M233.2,415.26a14.82,14.82,0,0,0-12.29,23.08l6.33-6.32a6.17,6.17,0,0,1-.31-1.95,6.25,6.25,0,1,1,6.25,6.25,6.46,6.46,0,0,1-2-.31l-6.32,6.32a14.81,14.81,0,1,0,8.29-27.07Z" transform="matrix(0.9999999999999999, 0, 0, 0.9999999999999999, -181, -415.260009765625)"/>
  <path class="cls-2" d="M227.31,458.42a23,23,0,0,0-4.61-13.87l-8.22,8.2A11.78,11.78,0,0,1,212.23,467l4.47,10.9A23.14,23.14,0,0,0,227.31,458.42Z" transform="matrix(0.9999999999999999, 0, 0, 0.9999999999999999, -181, -415.260009765625)"/>
  <path class="cls-3" d="M204.36,470.2h-.21a11.79,11.79,0,1,1,6.47-21.63l8.13-8.14a23.16,23.16,0,1,0-14.6,41.15,23.64,23.64,0,0,0,4.67-.47Z" transform="matrix(0.9999999999999999, 0, 0, 0.9999999999999999, -181, -415.260009765625)"/>
  <path class="cls-4" d="M233.52,479.63a52.72,52.72,0,0,0-15.18,2.23l6.51,15.9a35.74,35.74,0,1,1-8,3.08L210.45,485a52.55,52.55,0,1,0,23.11-5.36Z" transform="matrix(0.9999999999999999, 0, 0, 0.9999999999999999, -181, -415.260009765625)"/>
  <path class="cls-5" d="M473.08,477.29a42.47,42.47,0,0,1,15.77,16.53,50.07,50.07,0,0,1,0,46.21,42.42,42.42,0,0,1-15.76,16.52,45.69,45.69,0,0,1-45.53,0v0A42.38,42.38,0,0,1,411.78,540a50,50,0,0,1,0-46.17,42.41,42.41,0,0,1,15.77-16.53A45.69,45.69,0,0,1,473.08,477.29Zm96,0a42.4,42.4,0,0,1,15.77,16.53,50.07,50.07,0,0,1,0,46.21,42.42,42.42,0,0,1-15.76,16.52,45.69,45.69,0,0,1-45.53,0v0A42.45,42.45,0,0,1,507.82,540a50,50,0,0,1,0-46.17,42.47,42.47,0,0,1,15.77-16.53A45.69,45.69,0,0,1,569.12,477.29Zm148.31-6.12q12.63,0,21.92,5.65a37.48,37.48,0,0,1,14.28,15.61,50.28,50.28,0,0,1,5,22.81,30.68,30.68,0,0,1-.34,4.39H690.08q.51,9.81,4.72,16.53a27.5,27.5,0,0,0,10.72,10.11,28.94,28.94,0,0,0,13.58,3.38q16.85,0,25.46-15.52L756.7,540a42.81,42.81,0,0,1-15,16.45q-9.62,6.07-23.1,6.08a41.89,41.89,0,0,1-22.1-5.88,40.85,40.85,0,0,1-15.26-16.27A49.24,49.24,0,0,1,675.75,517a51.4,51.4,0,0,1,5.16-22.83,41.33,41.33,0,0,1,14.67-16.78A39.07,39.07,0,0,1,717.43,471.17ZM351.74,437V548.52h54.39v14H337V437Zm264.18,0v79.38l44.46-45.16h18.75v.69l-37.5,37.86,35.8,52.14v.66H659.72L631.22,520l-15.3,15.32v27.26H601.16V437ZM819,473.1v15.81a27.73,27.73,0,0,0-12.5-2.79,20.62,20.62,0,0,0-11.82,3.66,26.43,26.43,0,0,0-8.6,9.82,28.51,28.51,0,0,0-3.22,13.33v49.63H768.11V471.22h14.07v17h.7A24.18,24.18,0,0,1,793,476a28.23,28.23,0,0,1,15.61-4.84A25.7,25.7,0,0,1,819,473.1ZM450.31,484.17a29.31,29.31,0,0,0-25.88,15.34,38.61,38.61,0,0,0,0,34.75,29.44,29.44,0,0,0,40.64,11.38h0a29.25,29.25,0,0,0,11-11.38,38.53,38.53,0,0,0,0-34.75,29.31,29.31,0,0,0-11-11.38A28.86,28.86,0,0,0,450.31,484.17Zm96,0a29.41,29.41,0,0,0-14.85,4,29.1,29.1,0,0,0-11,11.38,38.53,38.53,0,0,0,0,34.75,29.1,29.1,0,0,0,11,11.38,29.42,29.42,0,0,0,14.85,4,28.94,28.94,0,0,0,14.79-4h0a29.4,29.4,0,0,0,11-11.38,38.61,38.61,0,0,0,0-34.75,29.4,29.4,0,0,0-11-11.38A28.85,28.85,0,0,0,546.33,484.17Zm153.9,6.49A31,31,0,0,0,691,507.78H743.4a27.84,27.84,0,0,0-3-10.79,23.27,23.27,0,0,0-8.44-9.11q-5.73-3.7-14.5-3.71A24.55,24.55,0,0,0,700.23,490.66Z" transform="matrix(0.9999999999999999, 0, 0, 0.9999999999999999, -181, -415.260009765625)"/>
</svg>