<?xml version="1.0" encoding="utf-8"?>
<svg viewBox="0.0042 0 105.1173 169.48" xmlns="http://www.w3.org/2000/svg">
  <defs>
    <style>.cls-1{fill:#34a853;}.cls-2{fill:#fbbc04;}.cls-3{fill:#ea4335;}.cls-4{fill:#4285f4;}.cls-5{fill:#5f6368;}</style>
  </defs>
  <path class="cls-1" d="M233.2,415.26a14.82,14.82,0,0,0-12.29,23.08l6.33-6.32a6.17,6.17,0,0,1-.31-1.95,6.25,6.25,0,1,1,6.25,6.25,6.46,6.46,0,0,1-2-.31l-6.32,6.32a14.81,14.81,0,1,0,8.29-27.07Z" transform="matrix(1, 0, 0, 1, -181, -415.260009765625)"/>
  <path class="cls-2" d="M227.31,458.42a23,23,0,0,0-4.61-13.87l-8.22,8.2A11.78,11.78,0,0,1,212.23,467l4.47,10.9A23.14,23.14,0,0,0,227.31,458.42Z" transform="matrix(1, 0, 0, 1, -181, -415.260009765625)"/>
  <path class="cls-3" d="M204.36,470.2h-.21a11.79,11.79,0,1,1,6.47-21.63l8.13-8.14a23.16,23.16,0,1,0-14.6,41.15,23.64,23.64,0,0,0,4.67-.47Z" transform="matrix(1, 0, 0, 1, -181, -415.260009765625)"/>
  <path class="cls-4" d="M233.52,479.63a52.72,52.72,0,0,0-15.18,2.23l6.51,15.9a35.74,35.74,0,1,1-8,3.08L210.45,485a52.55,52.55,0,1,0,23.11-5.36Z" transform="matrix(1, 0, 0, 1, -181, -415.260009765625)"/>
</svg>