<svg id="Layer_1" data-name="Layer 1" xmlns="http://www.w3.org/2000/svg" viewBox="0 0 500 117.51"><path d="M257.49,537.4h0a7.49,7.49,0,0,1-7.49-7.49V510.16a7.49,7.49,0,0,1,7.49-7.49h0a7.49,7.49,0,0,1,7.49,7.49v19.75A7.49,7.49,0,0,1,257.49,537.4Zm29.6-.72v-34.2A7.49,7.49,0,0,0,279.6,495h0a7.49,7.49,0,0,0-7.49,7.49v34.2a7.49,7.49,0,0,0,7.49,7.49h0A7.49,7.49,0,0,0,287.09,536.68Zm22.12,7.57V495.34a7.49,7.49,0,0,0-7.49-7.49h0a7.49,7.49,0,0,0-7.49,7.49v48.91a7.49,7.49,0,0,0,7.49,7.49h0A7.49,7.49,0,0,0,309.21,544.25Zm22.11,7V487.52a7.49,7.49,0,0,0-7.49-7.49h0a7.49,7.49,0,0,0-7.49,7.49v63.74a7.49,7.49,0,0,0,7.49,7.49h0A7.49,7.49,0,0,0,331.32,551.26Zm32.81-80.52-99.88-29.17a7.89,7.89,0,0,0-10.11,7.58v47.14h5.92V449.15a2,2,0,0,1,2-2,2.24,2.24,0,0,1,.57.08l99.89,29.17a2,2,0,0,1,1.42,1.89v62.9a2,2,0,0,1-2,2,2.24,2.24,0,0,1-.57-.08l-22.78-6.65v6.16l21.12,6.17a7.89,7.89,0,0,0,10.11-7.58v-62.9A7.89,7.89,0,0,0,364.13,470.74Zm63.64-1.11a93.8,93.8,0,0,1,15.63-1.22c8,0,13.94,1.87,17.68,5.24,3.46,3,5.52,7.58,5.52,13.19s-1.68,10.2-4.86,13.48c-4.31,4.58-11.33,6.92-19.28,6.92a27.92,27.92,0,0,1-6.55-.56v25.26h-8.14ZM435.91,500a27.77,27.77,0,0,0,6.74.65c9.82,0,15.81-4.77,15.81-13.47,0-8.33-5.89-12.35-14.88-12.35a34.56,34.56,0,0,0-7.67.65Zm80,8.88c0,16.75-11.6,24.05-22.55,24.05-12.26,0-21.71-9-21.71-23.3,0-15.15,9.92-24,22.46-24C507.11,485.63,515.91,495.08,515.91,508.92Zm-35.93.47c0,9.92,5.71,17.41,13.75,17.41,7.86,0,13.76-7.4,13.76-17.59,0-7.68-3.84-17.41-13.57-17.41S480,500.78,480,509.39Zm48.94-22.73,6,23c1.31,5.06,2.53,9.73,3.37,14.41h.28c1-4.58,2.53-9.45,4-14.31L550,486.66h6.92l7,22.64c1.68,5.43,3,10.2,4,14.78h.28a138.86,138.86,0,0,1,3.46-14.69l6.46-22.73h8.14l-14.6,45.28h-7.48l-6.93-21.61a150.43,150.43,0,0,1-4-14.88h-.19a133,133,0,0,1-4.11,15l-7.3,21.52h-7.49l-13.66-45.28Zm69.23,24.14c.19,11.13,7.3,15.71,15.53,15.71a30,30,0,0,0,12.54-2.33l1.4,5.89a36.66,36.66,0,0,1-15.06,2.81c-13.94,0-22.27-9.17-22.27-22.83s8.05-24.42,21.24-24.42c14.78,0,18.71,13,18.71,21.33a30.11,30.11,0,0,1-.28,3.84Zm24.14-5.9c.09-5.24-2.15-13.38-11.42-13.38-8.32,0-12,7.67-12.63,13.38Zm18.15-4.12c0-5.33-.09-9.91-.37-14.12h7.2l.28,8.89h.38c2.05-6.09,7-9.92,12.53-9.92a8.78,8.78,0,0,1,2.34.28v7.76a12.73,12.73,0,0,0-2.8-.28c-5.81,0-9.92,4.4-11,10.58a23.92,23.92,0,0,0-.37,3.83v24.14h-8.14Zm50.71-31.06A78.81,78.81,0,0,1,706,468.41c8.14,0,13.38,1.41,17.3,4.59,3.28,2.43,5.24,6.17,5.24,11.13,0,6.08-4,11.42-10.66,13.85v.19c6,1.49,13,6.45,13,15.81a17,17,0,0,1-5.33,12.63c-4.4,4-11.51,5.89-21.8,5.89a94.1,94.1,0,0,1-12.63-.75Zm8.14,25.83h7.39c8.61,0,13.66-4.5,13.66-10.58,0-7.39-5.61-10.29-13.85-10.29a35,35,0,0,0-7.2.56Zm0,30.22a43.67,43.67,0,0,0,6.83.37c8.42,0,16.19-3.09,16.19-12.26,0-8.6-7.4-12.16-16.28-12.16h-6.74ZM750,468.88v63.06h-8.14V468.88Z" transform="translate(-250 -441.25)"/></svg>